<svg id="Layer_1" data-name="Layer 1" xmlns="http://www.w3.org/2000/svg" viewBox="0 0 150 150">
  <title>Icons_black</title>
  <g>
    <path d="M39,122.14H23.21V46.08L0,54V40.71L37,27.12h2Z" style="fill: #c5c5c5"/>
    <path d="M82.41,50.21a9,9,0,0,1,6.88,2.52A8.66,8.66,0,0,1,91.71,59a8.38,8.38,0,0,1-2.42,6.14,9.15,9.15,0,0,1-6.88,2.43,9.07,9.07,0,0,1-6.69-2.41A8.2,8.2,0,0,1,73.24,59a8.66,8.66,0,0,1,2.42-6.28A8.86,8.86,0,0,1,82.41,50.21Zm0,55.23A9,9,0,0,1,89.29,108a8.62,8.62,0,0,1,2.42,6.26,8.37,8.37,0,0,1-2.48,6.21,9.13,9.13,0,0,1-6.88,2.43,9.15,9.15,0,0,1-6.63-2.43,8.29,8.29,0,0,1-2.48-6.2A8.65,8.65,0,0,1,75.66,108a8.87,8.87,0,0,1,6.75-2.53Z" style="fill: #75beff"/>
    <path d="M150,122.14H134.2V46.08L111,54V40.71L148,27.12h2Z" style="fill: #c5c5c5"/>
  </g>
</svg>
